<?xml version="1.0" encoding="UTF-8"?>
<svg xmlns="http://www.w3.org/2000/svg" xmlns:xlink="http://www.w3.org/1999/xlink" viewBox="0 0 1920 1142.17">
  <defs>
    <style>
      .cls-1 {
        fill: #2f3546;
      }

      .cls-2 {
        fill: #fff;
      }

      .cls-3 {
        fill: #767f99;
        filter: url(#drop-shadow-1);
      }

      .cls-4 {
        fill: #babdc5;
        filter: url(#drop-shadow-2);
      }

      .cls-5 {
        fill: #a1a5b2;
        filter: url(#drop-shadow-3);
      }

      .cls-6 {
        fill: #b8bdcc;
      }
    </style>
    <filter id="drop-shadow-1" x="406" y="947" width="384" height="152" filterUnits="userSpaceOnUse">
      <feOffset dx="7" dy="7"/>
      <feGaussianBlur result="blur" stdDeviation="5"/>
      <feFlood flood-color="#000" flood-opacity=".77"/>
      <feComposite in2="blur" operator="in"/>
      <feComposite in="SourceGraphic"/>
    </filter>
    <filter id="drop-shadow-2" x="670" y="498" width="442" height="601" filterUnits="userSpaceOnUse">
      <feOffset dx="7" dy="7"/>
      <feGaussianBlur result="blur-2" stdDeviation="5"/>
      <feFlood flood-color="#000" flood-opacity=".77"/>
      <feComposite in2="blur-2" operator="in"/>
      <feComposite in="SourceGraphic"/>
    </filter>
    <filter id="drop-shadow-3" x="920" y="1000" width="302" height="97" filterUnits="userSpaceOnUse">
      <feOffset dx="7" dy="7"/>
      <feGaussianBlur result="blur-3" stdDeviation="5"/>
      <feFlood flood-color="#000" flood-opacity=".77"/>
      <feComposite in2="blur-3" operator="in"/>
      <feComposite in="SourceGraphic"/>
    </filter>
  </defs>
  <g id="Layer_9">
    <g id="Layer_5">
      <g>
        <path class="cls-1" d="M938.78,502.42l-1.28-12.83c3.81,1.56,7.04,2.64,9.68,3.24,2.64.6,5.08.9,7.29.9s4.08-.26,5.6-.79c1.52-.52,2.64-1.3,3.38-2.33.74-1.03,1.11-2.11,1.11-3.24,0-.51-.05-.97-.15-1.4-.1-.43-.27-.88-.53-1.34-.25-.47-.54-.9-.88-1.31-.33-.41-.79-.88-1.37-1.4s-1.42-1.2-2.51-2.01l-3.15-2.51c-3.03-2.37-5.35-4.24-6.94-5.6-1.6-1.36-2.94-2.75-4.03-4.17-1.09-1.42-1.92-2.92-2.48-4.49-.56-1.58-.85-3.18-.85-4.81,0-2.84.87-5.54,2.6-8.11,1.73-2.57,4.25-4.44,7.55-5.63,3.31-1.19,7.19-1.78,11.67-1.78,5.09,0,10.97.6,17.62,1.81l.76,12.19c-4.51-1.83-8.85-2.74-13.01-2.74-2.26,0-4.23.22-5.92.67-1.69.45-2.91,1.13-3.65,2.04-.74.91-1.11,1.94-1.11,3.06,0,.66.12,1.31.35,1.95s.64,1.31,1.23,2.01c.58.7,1.25,1.36,2.01,1.98.76.62,2.34,1.85,4.75,3.68,2.41,1.83,4.52,3.48,6.33,4.96,1.81,1.48,3.3,2.97,4.46,4.46,1.17,1.5,2.06,3.1,2.68,4.81.62,1.71.93,3.44.93,5.19,0,2.92-.9,5.62-2.68,8.11-1.79,2.49-4.49,4.43-8.11,5.83-3.62,1.4-7.66,2.1-12.13,2.1-2.33,0-5.17-.19-8.52-.55-3.35-.37-6.92-1.02-10.73-1.95Z"/>
        <path class="cls-1" d="M988.63,503.53l.43-5.63.31-6.51.19-5.92v-2c2.42.02,4.94.03,7.57.03h2.82s4.25-.03,4.25-.03l-.18,3.18-1.4-.07c-.38-.02-.91-.03-1.59-.04-.68,0-1.37-.01-2.07-.01-1.53,0-2.52,0-2.96,0-.45,0-1.12.02-2.02.05l-.24,5.22c1.34.03,2.7.04,4.06.04.94,0,2.53-.03,4.76-.09-.08.89-.15,1.96-.21,3.2-2.62-.03-4.12-.04-4.5-.04-1.16,0-2.6.03-4.32.09l-.24,5.5h1.62c.47.01,1.55,0,3.23-.01l3.19-.06,2.13-.1c-.1,1.14-.17,2.21-.21,3.22-2.55-.02-4.85-.03-6.89-.03h-4.84s-2.91.03-2.91.03Z"/>
        <path class="cls-1" d="M1004.38,503.53c1.02-1.8,2.22-4.03,3.59-6.69l3.87-7.42c1.21-2.29,2.21-4.28,3-5.95,1.27.02,2.18.03,2.71.03.93,0,1.84,0,2.73-.03l2.1,6.01,4.57,12.44.63,1.62-2.2-.03c-.51,0-1.37,0-2.57.03-.24-.87-.61-2.05-1.11-3.53-.51-1.48-.94-2.68-1.29-3.6h-7.74c-1.15,2.33-2.26,4.71-3.35,7.13l-2.4-.03c-.45,0-1.3,0-2.54.03ZM1013.97,493.34h5.63l-2.31-6.8-1.19,2.47-2.13,4.33Z"/>
        <path class="cls-1" d="M1027.93,497.23c.09-.95.14-1.94.16-2.97,1.42.04,2.69.06,3.79.06s2.39-.02,3.81-.06c-.08.83-.13,1.82-.16,2.97-1.42-.05-2.7-.07-3.82-.07s-2.36.02-3.78.07Z"/>
        <path class="cls-1" d="M1038.28,483.46c1.13.02,1.9.03,2.3.03.5,0,1.24,0,2.23-.03l-.69,11.86c0,.14-.02.28-.02.44,0,1.32.19,2.32.57,2.98.38.67.93,1.15,1.66,1.46s1.57.46,2.51.46c.6,0,1.17-.07,1.71-.21.44-.12.84-.28,1.21-.49.29-.18.55-.38.78-.62.26-.28.49-.61.66-.98.19-.36.32-.77.41-1.23.13-.7.25-1.91.36-3.63l.31-5.12c.07-1.49.12-3.13.16-4.92,1.11.02,1.93.03,2.47.03l2.14-.03-.46,7.09-.29,5.63c-.09,1.31-.23,2.29-.41,2.94-.16.54-.38,1.04-.66,1.5-.27.41-.6.78-.99,1.1-.49.42-1.06.78-1.72,1.09-.74.34-1.51.59-2.34.75-1.14.22-2.31.32-3.51.32s-2.39-.11-3.47-.34c-.92-.2-1.77-.5-2.54-.91-.77-.41-1.38-.87-1.83-1.38-.36-.41-.65-.93-.87-1.54-.24-.69-.37-1.45-.37-2.29,0-.29,0-.67.03-1.14.02-.47.05-1.07.1-1.8l.13-2.07c.05-.65.1-1.6.16-2.85l.15-3.19c.04-.87.07-1.84.1-2.9Z"/>
        <path class="cls-1" d="M1059.56,503.1c-.08-1.49-.18-2.71-.31-3.65,1.92.87,3.67,1.31,5.23,1.31.63,0,1.21-.1,1.76-.29.54-.19.95-.46,1.21-.81.26-.35.39-.74.39-1.17,0-.33-.06-.63-.19-.9-.19-.36-.5-.74-.94-1.13-.56-.54-1.56-1.43-3-2.66-.69-.6-1.16-1.02-1.42-1.28-.59-.56-1.04-1.06-1.35-1.51-.31-.45-.54-.89-.68-1.33s-.21-.91-.21-1.41c0-.92.26-1.79.77-2.59.52-.81,1.28-1.44,2.31-1.9,1.02-.46,2.32-.68,3.87-.68,1.4,0,2.98.17,4.73.51.05,1.02.15,2.19.29,3.5-1.53-.59-2.93-.88-4.23-.88-.96,0-1.74.22-2.36.65-.61.44-.92.94-.92,1.52,0,.16.02.32.06.49.04.17.11.34.19.5.08.16.24.37.46.63.22.26.54.56.96.91.42.35.78.63,1.08.85l1.81,1.65c.46.38.87.75,1.23,1.12.36.36.67.71.93,1.04.26.33.46.65.61.96s.26.62.33.93c.07.32.11.65.11,1.01,0,.82-.19,1.6-.57,2.33-.38.73-.93,1.33-1.65,1.8-.71.47-1.5.8-2.35.98-.85.18-1.75.27-2.71.27-.63,0-1.36-.05-2.19-.16-.83-.11-1.93-.31-3.29-.62Z"/>
      </g>
      <ellipse class="cls-2" cx="877.15" cy="455.95" rx="49.91" ry="50.26" transform="translate(-85.16 682.31) rotate(-40.7)"/>
      <g>
        <path class="cls-1" d="M864.8,319.66c8.53-1.33,47.88-6.78,62.1,13.66,2.36,3.39,4.08,7.72,6.21,16.73,4.88,20.6,5.64,38.09,5.73,46.74,0,.47.02,1.9,0,3.91-.21,35.4-6.67,43.82-1.89,60.41,1.86,6.45,4.08,14.13,10.51,17.2,5.39,2.58,10.38.31,15.77,4.78,2.61,2.16,3.92,4.92,5.26,7.65,2.25,4.58,3.04,8.75,3.35,11.47-3.35,1.49-7.01,2.8-10.99,3.82-24.64,6.32-46.71-2.53-57.37-7.84-1.95,1.72-4.97,4.02-9.08,5.73-15.35,6.39-34.93,0-34.93,0,.38-2.99,1.34-7.48,3.96-12.31,3.93-7.22,9.45-11.22,12.33-13.02-4.46-6.84-15.9-26.38-14.36-53.04.27-4.63,3.09-45.14,27.26-58.31,4.41-2.4,11.7-5.08,11.47-8.6-.22-3.38-7.26-5.71-13.38-7.17-6.03-1.44-12.67-6.36-17.14-12.69-1.87-2.65-5.36-8.7-4.81-19.13Z"/>
        <rect class="cls-1" x="869.1" y="334.47" width="1.43" height="21.98"/>
        <rect class="cls-1" x="876.27" y="334.47" width="1.43" height="21.98"/>
        <rect class="cls-1" x="872.45" y="334.47" width="1.43" height="21.98"/>
      </g>
    </g>
  </g>
  <g id="Layer_7">
    <g>
      <polyline class="cls-3" points="768 955 687.64 955 578.48 1025.31 414.4 1077 713.03 1077 768 955"/>
      <polyline class="cls-6" points="954.16 1017.56 1023 966.04 1117.32 986.93 1208.3 932.87 1454.63 1078.38 983.08 1074.7 954.16 1017.56"/>
      <polygon class="cls-4" points="804.74 506.71 804.83 533.37 829.05 541.78 816.89 887.15 783.54 887.15 678 1077 1090 1077 996.24 879.95 950.69 881.69 920.71 881.69 907.45 542.67 934.55 526.99 937.21 506.71 804.74 506.71"/>
      <polygon class="cls-5" points="1199.3 1075 1182.91 1046 1125.91 1008 1062.91 1022 1003.91 1018 928.91 1075 1199.3 1075"/>
    </g>
  </g>
</svg>