<?xml version="1.0" encoding="UTF-8"?>
<svg id="Layer_1" xmlns="http://www.w3.org/2000/svg" viewBox="0 0 73.33 48.97">
  <defs>
    <style>
      .cls-1, .cls-2 {
        fill: #303647;
      }

      .cls-2 {
        font-family: Gadugi-Bold, Gadugi;
        font-size: 19.26px;
        font-weight: 700;
      }
    </style>
  </defs>
  <path class="cls-1" d="M17.59,3.85v2.68c.89-.61,2.19-1.42,3.85-2.17,1.59-.71,4.49-1.98,8.48-2.05,1.33-.03,4.15.05,7.45,1.28,2.27.85,3.99,1.96,5.14,2.83v-2.55c-1.51-1.03-3.75-2.3-6.68-3.1C33.04.01,30.79-.01,29.92,0c-3.2.04-5.57.82-6.93,1.28-2.19.74-4,1.69-5.39,2.57Z"/>
  <path class="cls-1" d="M17.59,8.48v2.83c.99-1,2.68-2.48,5.14-3.6.81-.37,3.5-1.51,7.19-1.54,3.83-.03,6.62,1.17,7.45,1.54,2.46,1.12,4.15,2.6,5.14,3.6v-2.83c-1.51-1.08-3.47-2.23-5.91-3.08-1.54-.54-3.84-1.33-6.93-1.28-2.96.04-5.16.82-6.42,1.28-2.53.93-4.42,2.15-5.65,3.08Z"/>
  <path class="cls-1" d="M17.59,13.87v3.34c.74-1.18,2.4-3.47,5.39-5.14,2.51-1.4,4.78-1.71,5.65-1.8,4.59-.46,8.01,1.46,8.99,2.05,2.62,1.59,4.12,3.65,4.88,4.88v-3.34c-1.08-1.29-3.07-3.3-6.16-4.62-.94-.4-6.68-2.75-12.84,0-3.01,1.35-4.91,3.37-5.91,4.62Z"/>
  <path class="cls-1" d="M17.59,24.4h2.05c0-.69.09-5.06,3.6-7.96,2.5-2.07,5.32-2.21,6.42-2.25,1.15-.04,4.37-.1,7.19,2.25,3.43,2.85,3.58,7.04,3.6,7.7h2.31c0-.99-.15-5.09-3.34-8.48-3.37-3.58-7.73-3.81-8.99-3.85-1.14-.04-4.13-.11-7.19,1.8-.81.5-3.51,2.32-4.88,5.91-.77,2.02-.82,3.82-.77,4.88Z"/>
  <path class="cls-1" d="M21.44,24.14h2.05c.01-.41.12-3.02,2.31-4.88,1.94-1.65,4.17-1.57,4.62-1.54.54.03,2.28.2,3.85,1.54,2.16,1.84,2.3,4.43,2.31,4.88h2.31c-.12-.97-.58-3.66-2.83-5.91-.63-.63-2.14-2.11-4.62-2.57-3.16-.59-5.59.91-6.16,1.28-1.92,1.26-2.79,2.95-3.08,3.6-.68,1.49-.77,2.83-.77,3.6Z"/>
  <path class="cls-1" d="M24.94,24.14h2.41c.09-1.4,1.22-2.51,2.57-2.57,1.43-.07,2.72,1.07,2.83,2.57h2.41c-.07-.56-.34-2.14-1.65-3.45-.37-.37-1.25-1.23-2.7-1.5-1.85-.34-3.27.53-3.6.75-1.12.74-1.63,1.72-1.8,2.1-.4.87-.45,1.66-.45,2.1Z"/>
  <text class="cls-2" transform="translate(.01 44.37)"><tspan x="0" y="0">xplorit</tspan></text>
</svg>